<svg xmlns="http://www.w3.org/2000/svg" viewBox="0 0 102 102"><title>Asset 1</title><g id="Layer_2" data-name="Layer 2"><g id="header"><g id="logo"><path d="M51,85A34,34,0,1,1,85,51,34,34,0,0,1,51,85Zm0-63.14A29.14,29.14,0,1,0,80.14,51,29.17,29.17,0,0,0,51,21.86Z" fill="#7160c1"/><path d="M51,102a2.43,2.43,0,0,1-2.43-2.43V97.14a2.43,2.43,0,1,1,4.86,0v2.43A2.43,2.43,0,0,1,51,102Z" fill="#7160c1"/><path d="M51,7.29a2.43,2.43,0,0,1-2.43-2.43V2.43a2.43,2.43,0,0,1,4.86,0V4.86A2.43,2.43,0,0,1,51,7.29Z" fill="#7160c1"/><path d="M51,4.86a4.07,4.07,0,0,1-.49-.05,1.47,1.47,0,0,1-.43-.15,1.81,1.81,0,0,1-.44-.22l-.36-.29a2.54,2.54,0,0,1-.71-1.72A2.58,2.58,0,0,1,49.28.7a2.55,2.55,0,0,1,3.44,0c.1.13.2.25.3.39a1.59,1.59,0,0,1,.21.41,1.35,1.35,0,0,1,.15.44,4.07,4.07,0,0,1,0,.49,2.54,2.54,0,0,1-.71,1.72A2.54,2.54,0,0,1,51,4.86Z" fill="#7160c1"/><path d="M4.86,53.43H2.43a2.43,2.43,0,0,1,0-4.86H4.86a2.43,2.43,0,0,1,0,4.86Z" fill="#7160c1"/><path d="M99.57,53.43H97.14a2.43,2.43,0,0,1,0-4.86h2.43a2.43,2.43,0,1,1,0,4.86Z" fill="#7160c1"/><path d="M99.57,53.43a3.91,3.91,0,0,1-.48,0,1.21,1.21,0,0,1-.44-.15,1.51,1.51,0,0,1-.44-.22l-.36-.29A2.54,2.54,0,0,1,97.14,51a4.07,4.07,0,0,1,0-.49,1.47,1.47,0,0,1,.15-.43,1.51,1.51,0,0,1,.22-.44,3.05,3.05,0,0,1,.29-.36l.36-.3a2.26,2.26,0,0,1,.44-.22,1.41,1.41,0,0,1,.44-.14,2.53,2.53,0,0,1,2.21.66,2.46,2.46,0,0,1,0,3.44c-.13.1-.25.2-.39.29a1.13,1.13,0,0,1-.42.22,1.19,1.19,0,0,1-.46.15A3.41,3.41,0,0,1,99.57,53.43Z" fill="#7160c1"/><path d="M16.76,87.67A2.46,2.46,0,0,1,15,87a2.42,2.42,0,0,1,0-3.43l1.7-1.7a2.43,2.43,0,1,1,3.44,3.43L18.48,87A2.46,2.46,0,0,1,16.76,87.67Z" fill="#7160c1"/><path d="M83.54,20.89a2.42,2.42,0,0,1-1.71-.71,2.44,2.44,0,0,1,0-3.44l1.7-1.7A2.43,2.43,0,0,1,87,18.47l-1.7,1.7A2.39,2.39,0,0,1,83.54,20.89Z" fill="#7160c1"/><path d="M85.24,19.19a2.42,2.42,0,0,1-2.43-2.43,2,2,0,0,1,.2-.93,2.85,2.85,0,0,1,.51-.8A2.54,2.54,0,0,1,87,15a3.1,3.1,0,0,1,.51.8,2.45,2.45,0,0,1,.19.93,2.53,2.53,0,0,1-.7,1.72A2.56,2.56,0,0,1,85.24,19.19Z" fill="#7160c1"/><path d="M18.46,20.89a2.39,2.39,0,0,1-1.72-.72L15,18.47A2.43,2.43,0,1,1,18.48,15l1.7,1.7a2.44,2.44,0,0,1,0,3.44A2.42,2.42,0,0,1,18.46,20.89Z" fill="#7160c1"/><path d="M85.24,87.67A2.46,2.46,0,0,1,83.52,87l-1.7-1.7a2.43,2.43,0,1,1,3.44-3.43l1.7,1.7A2.42,2.42,0,0,1,87,87,2.46,2.46,0,0,1,85.24,87.67Z" fill="#7160c1"/><path d="M85.24,87.67a2.57,2.57,0,0,1-1.72-.7,2.85,2.85,0,0,1-.51-.8,2,2,0,0,1-.2-.93,2.43,2.43,0,1,1,4.86,0,2.49,2.49,0,0,1-.19.93A3.1,3.1,0,0,1,87,87,2.6,2.6,0,0,1,85.24,87.67Z" fill="#7160c1"/></g></g></g></svg>